<?xml version="1.0" encoding="UTF-8"?>
<svg version="1.1" xmlns="http://www.w3.org/2000/svg" width="2000" height="654">
<path d="M0 0 C1.94289696 1.82991278 3.8473694 3.68989657 5.75 5.5625 C6.43191406 6.21992188 7.11382812 6.87734375 7.81640625 7.5546875 C18.21835148 18.39877358 22.06127588 32.20338429 22.01742554 46.83242798 C22.02195665 47.9482788 22.02648776 49.06412963 22.03115618 50.21379411 C22.04378928 53.9428648 22.04218048 57.67178923 22.04052734 61.40087891 C22.04651334 64.07882222 22.05326281 66.7567542 22.06088257 69.43469238 C22.0774618 75.94880438 22.08299076 82.46288018 22.08410732 88.97701152 C22.08505944 94.27609573 22.08917791 99.57516805 22.09550858 104.8742485 C22.11311408 119.91855285 22.12234875 134.96282873 22.12084763 150.00714345 C22.12076772 150.81737889 22.1206878 151.62761432 22.12060547 152.46240234 C22.12052371 153.27363443 22.12044195 154.08486652 22.12035771 154.9206814 C22.11954543 168.05721252 22.13867019 181.1936288 22.1668822 194.33012672 C22.19566267 207.83862399 22.2094196 221.34706536 22.20769465 234.85559404 C22.20703244 242.43148486 22.2124502 250.00725535 22.23405075 257.58311844 C22.25233087 264.03550201 22.25655437 270.48771074 22.2430319 276.94010909 C22.23653584 280.22702187 22.23846831 283.51353307 22.2537384 286.80042648 C22.35052124 309.08490323 20.1471623 325.2135218 4.30859375 342.09375 C-34.374553 379.41855725 -99.84339028 388.562006 -151.15234375 388.765625 C-152.3408342 388.77259399 -153.52932465 388.77956299 -154.75382996 388.78674316 C-158.56508978 388.80403054 -162.37620261 388.8104621 -166.1875 388.8125 C-167.48790222 388.81350708 -168.78830444 388.81451416 -170.12811279 388.81555176 C-189.03330154 388.80563313 -207.52891977 388.3831548 -226.25 385.5625 C-227.79373291 385.3456958 -227.79373291 385.3456958 -229.36865234 385.12451172 C-258.74762071 380.9617613 -288.11438567 373.97344918 -314.25 359.5625 C-315.32507813 358.98757813 -316.40015625 358.41265625 -317.5078125 357.8203125 C-334.69188556 348.2833717 -349.72473855 334.14913657 -355.41954041 314.90074158 C-357.65145419 304.92409374 -356.80197085 294.20275251 -356.76757812 284.04882812 C-356.7730041 281.3586591 -356.77998596 278.66853417 -356.78881836 275.9783783 C-356.80652582 269.45387023 -356.80279854 262.9295471 -356.7911678 256.40503204 C-356.78210293 251.09842095 -356.78092261 245.79186138 -356.78526306 240.48524475 C-356.78587599 239.72753518 -356.78648893 238.9698256 -356.78712043 238.18915513 C-356.78839944 236.64947457 -356.7896963 235.10979402 -356.7910108 233.57011348 C-356.80239382 219.16125419 -356.78933877 204.752497 -356.76780933 190.34365445 C-356.74994041 178.00297766 -356.75304516 165.66245142 -356.77148438 153.32177734 C-356.79293147 138.96149264 -356.80129539 124.60129723 -356.78903532 110.24099874 C-356.78776124 108.70725093 -356.78650375 107.17350309 -356.78526306 105.63975525 C-356.78464596 104.88528902 -356.78402886 104.1308228 -356.78339306 103.35349396 C-356.77995165 98.05848105 -356.78574228 92.76352519 -356.79518127 87.46852112 C-356.80644545 81.00815993 -356.80326906 74.54799294 -356.7820583 68.08765376 C-356.77160673 64.79679355 -356.76950829 61.50631978 -356.78065491 58.21545219 C-356.84784202 36.35764511 -354.64287513 19.66459918 -338.6875 3.375 C-332.16872793 -3.01967936 -325.22801674 -8.03294756 -317.25 -12.4375 C-316.64494629 -12.77442871 -316.03989258 -13.11135742 -315.41650391 -13.45849609 C-240.68683511 -54.39259628 -127.82043581 -53.87353487 0 0 Z M-290.25 5.5625 C-290.88711914 5.84593262 -291.52423828 6.12936523 -292.18066406 6.42138672 C-305.98164366 12.6728382 -320.9265988 21.50686197 -327.3984375 35.859375 C-329.6026536 42.85624446 -329.19140199 49.32210722 -326.0625 55.9375 C-314.49438214 76.03790368 -290.30930658 84.97216582 -269.25 91.5625 C-268.52796387 91.79420898 -267.80592773 92.02591797 -267.06201172 92.26464844 C-252.77415324 96.79551299 -238.04017797 99.29002462 -223.25 101.5625 C-222.1863623 101.73056152 -221.12272461 101.89862305 -220.02685547 102.07177734 C-184.84437439 107.37746483 -146.38302681 107.07050742 -111.25 101.5625 C-110.10112305 101.39089355 -108.95224609 101.21928711 -107.76855469 101.04248047 C-73.0227604 95.75261056 -32.09645099 87.0897815 -9.58203125 57.625 C-5.82412691 51.80630941 -5.53237661 46.31934365 -6.25 39.5625 C-9.20922597 27.54685091 -20.19309471 18.78223195 -30.25 12.5625 C-100.46252334 -27.49341968 -215.08986342 -27.37269477 -290.25 5.5625 Z M-328.25 94.5625 C-328.37746075 101.64238112 -328.46462725 108.72196305 -328.5246582 115.80273438 C-328.54970084 118.2081203 -328.583745 120.61343089 -328.62719727 123.01855469 C-328.6882988 126.48912206 -328.71631363 129.95867772 -328.73828125 133.4296875 C-328.76408768 134.49363739 -328.7898941 135.55758728 -328.81648254 136.65377808 C-328.81971089 145.37572374 -326.33153778 151.55867098 -321.03125 158.4453125 C-287.03579818 191.85865042 -226.93290264 198.79597878 -181.25 199.5625 C-180.2482373 199.58296387 -179.24647461 199.60342773 -178.21435547 199.62451172 C-127.10854907 200.5361736 -55.44265623 197.97236775 -15.88671875 160.3125 C-7.90985973 151.9127362 -5.63352633 144.2024053 -5.859375 132.74609375 C-5.86503479 131.64902603 -5.87069458 130.55195831 -5.87652588 129.42164612 C-5.89876226 125.94730394 -5.94893618 122.47402593 -6 119 C-6.0200814 116.63217644 -6.03832928 114.26433658 -6.0546875 111.89648438 C-6.09858516 106.11813179 -6.16536895 100.34039195 -6.25 94.5625 C-13.53437531 98.48997668 -13.53437531 98.48997668 -20.7265625 102.58203125 C-78.89156182 135.70577156 -160.47570617 137.66375445 -225.25 128.5625 C-226.4757373 128.39089355 -227.70147461 128.21928711 -228.96435547 128.04248047 C-264.66869147 122.84092442 -296.98988177 112.44154769 -328.25 94.5625 Z M-328.25 171.5625 C-328.3517053 179.24874527 -328.42159403 186.93481595 -328.46972656 194.62158203 C-328.48979933 197.23460373 -328.51706358 199.84758075 -328.55175781 202.46044922 C-328.60046435 206.22374522 -328.62301311 209.98644549 -328.640625 213.75 C-328.66127014 214.91176758 -328.68191528 216.07353516 -328.70318604 217.27050781 C-328.7061752 228.15905119 -325.14496004 234.28721782 -317.71875 242.18359375 C-283.40166364 275.2517988 -222.24552059 279.24189485 -177.25 280.5625 C-176.08476807 280.59754639 -176.08476807 280.59754639 -174.89599609 280.63330078 C-123.84920821 281.92824168 -54.6771781 277.69762472 -15.25 241.0625 C-9.77648074 235.23497203 -6.11776116 228.2929643 -6.13647461 220.26489258 C-6.13658791 218.64355156 -6.13658791 218.64355156 -6.13670349 216.98945618 C-6.14186478 215.82375595 -6.14702606 214.65805573 -6.15234375 213.45703125 C-6.1537587 212.26268967 -6.15517365 211.06834808 -6.15663147 209.83781433 C-6.1622365 206.01685092 -6.17478989 202.19594575 -6.1875 198.375 C-6.19251435 195.78711022 -6.19707737 193.19921952 -6.20117188 190.61132812 C-6.21220757 184.26169882 -6.22895064 177.91210357 -6.25 171.5625 C-6.7970459 171.97432526 -7.3440918 172.38615051 -7.90771484 172.81045532 C-8.98593506 173.62091812 -8.98593506 173.62091812 -10.0859375 174.44775391 C-11.15400635 175.25111679 -11.15400635 175.25111679 -12.24365234 176.07070923 C-39.00735946 195.97047643 -72.45227459 203.8718046 -104.875 208.8125 C-105.86089111 208.96364258 -106.84678223 209.11478516 -107.86254883 209.27050781 C-127.4130773 212.04221246 -147.02269389 212.94476994 -166.75 212.875 C-168.37293472 212.87226578 -168.37293472 212.87226578 -170.02865601 212.86947632 C-219.55801465 212.72985964 -287.94241949 209.03791776 -325.9296875 172.77734375 C-327.07361847 171.44964938 -327.07361847 171.44964938 -328.25 171.5625 Z M-328.25 252.5625 C-328.37738946 260.06963868 -328.46459823 267.57649582 -328.5246582 275.08447266 C-328.54971127 277.63535987 -328.58376328 280.18617595 -328.62719727 282.73681641 C-328.68825144 286.41586927 -328.71630348 290.09396821 -328.73828125 293.7734375 C-328.76408768 294.90300873 -328.7898941 296.03257996 -328.81648254 297.19638062 C-328.82004647 307.39177535 -325.39681335 315.12399735 -318.43359375 322.56640625 C-276.34239453 361.04333434 -202.50860648 363.4515575 -148.44812012 361.13024902 C-105.26208702 359.08338602 -45.47765016 353.78993675 -14.0234375 320.18359375 C-7.01908063 311.6659499 -5.8106194 304.89378897 -5.95703125 294.06640625 C-5.96127609 292.87772446 -5.96552094 291.68904266 -5.96989441 290.46434021 C-5.98662749 286.68432543 -6.0242711 282.90485245 -6.0625 279.125 C-6.07755372 276.55534627 -6.09124092 273.98568414 -6.10351562 271.41601562 C-6.13651352 265.13132695 -6.18665996 258.84695219 -6.25 252.5625 C-6.79237808 252.97178741 -7.33475616 253.38107483 -7.89356995 253.80276489 C-8.96634438 254.61026688 -8.96634438 254.61026688 -10.06079102 255.43408203 C-11.12185814 256.23363815 -11.12185814 256.23363815 -12.20436096 257.04934692 C-54.95915611 288.67494097 -115.15671539 293.8144538 -166.625 293.75 C-167.59554321 293.74906342 -168.56608643 293.74812683 -169.56604004 293.74716187 C-220.37893166 293.6411755 -286.4662731 288.9048132 -326.25 253.5625 C-326.91 253.2325 -327.57 252.9025 -328.25 252.5625 Z " fill="#ff610b" transform="translate(374.25,147.4375)"/>
<path d="M0 0 C0.81366028 -0.00335861 1.62732056 -0.00671722 2.46563721 -0.01017761 C5.16810626 -0.01970582 7.87051321 -0.0216332 10.57299805 -0.02270508 C12.46656825 -0.02592184 14.3601382 -0.02928623 16.25370789 -0.03279114 C20.23929416 -0.03879088 24.22485875 -0.04063072 28.21044922 -0.04003906 C33.25388852 -0.03993864 38.29718319 -0.0534609 43.34058857 -0.07081127 C47.26436463 -0.08209122 51.18810783 -0.08395327 55.11189842 -0.08342934 C56.96653926 -0.08459057 58.82118149 -0.08890441 60.67580605 -0.0967617 C78.26686816 -0.16417304 96.04878486 0.5493 113.2722168 4.39526367 C114.26543945 4.61142334 115.25866211 4.82758301 116.28198242 5.05029297 C140.14875018 10.43182702 161.25556656 20.29324374 180.0222168 36.14526367 C180.84592773 36.82202148 181.66963867 37.4987793 182.51831055 38.19604492 C198.31704023 51.67795621 208.01945154 69.88227246 215.0222168 89.14526367 C215.38959961 90.09143555 215.75698242 91.03760742 216.13549805 92.01245117 C228.78714502 126.49917999 228.1021979 169.93126794 213.13549805 203.53588867 C198.33297398 234.93796617 172.60956878 259.24097984 140.07592773 271.42602539 C128.34912434 275.53291588 116.38155211 278.7628279 104.0222168 280.14526367 C103.23249985 280.2368425 102.4427829 280.32842133 101.62913513 280.42277527 C90.76145428 281.49700274 79.84139068 281.34920683 68.93237305 281.38354492 C67.83532988 281.38762045 66.73828671 281.39169598 65.6079998 281.395895 C59.8185839 281.41662748 54.0291909 281.4309929 48.23974609 281.44042969 C42.26547288 281.45156352 36.291565 281.48607937 30.31742191 281.52560139 C25.71151525 281.55169712 21.10569753 281.56011446 16.49972343 281.56371117 C14.29608077 281.56858282 12.09244223 281.58021319 9.88887215 281.59874916 C6.81591168 281.62302561 3.74392487 281.62219837 0.67089844 281.61523438 C-0.69049507 281.63444946 -0.69049507 281.63444946 -2.07939148 281.65405273 C-6.19934909 281.61996939 -8.43515199 281.46779512 -12.0443573 279.32254028 C-14.74150054 276.28522353 -14.62611724 273.64118235 -14.5012207 269.77416992 C-14.49688019 269.01455963 -14.49253967 268.25494934 -14.48806763 267.47232056 C-14.46694165 264.88327899 -14.40946867 262.29625411 -14.3527832 259.70776367 C-14.33041199 257.82603386 -14.3103063 255.94427603 -14.29223633 254.0625 C-14.23298962 248.64779737 -14.14016277 243.23406843 -14.04211426 237.81994629 C-13.93794398 231.86958994 -13.85275391 225.91896138 -13.76647186 219.96832466 C-13.71435966 216.37715054 -13.6614763 212.78598779 -13.60864258 209.19482422 C-13.59801159 208.4698899 -13.5873806 207.74495558 -13.57642746 206.99805355 C-13.51056482 202.51767917 -13.44279172 198.03733771 -13.37385178 193.5570097 C-12.71232835 150.44541479 -12.93051864 107.36313157 -13.62182617 64.25366211 C-13.73759977 57.01422248 -13.8374201 49.77470286 -13.92358398 42.53485107 C-13.95968907 39.51331228 -14.00185829 36.49192772 -14.04760742 33.47052002 C-14.10480088 29.61363676 -14.14582559 25.7568705 -14.17576599 21.899683 C-14.18947883 20.44459487 -14.20838861 18.98954531 -14.23280334 17.5345974 C-14.26550276 15.52910547 -14.2774044 13.52330686 -14.28833008 11.51757812 C-14.30085815 10.37996536 -14.31338623 9.2423526 -14.32629395 8.07026672 C-13.93640938 4.79801879 -13.2930048 3.45512714 -10.9777832 1.14526367 C-7.27775057 -0.08808054 -3.85327605 -0.00227327 0 0 Z M38.0222168 49.14526367 C38.0222168 109.53526367 38.0222168 169.92526367 38.0222168 232.14526367 C73.63357105 233.42963796 73.63357105 233.42963796 109.1472168 228.02026367 C109.879646 227.80781006 110.6120752 227.59535645 111.36669922 227.37646484 C132.17610618 220.9923457 150.70959001 207.86642241 161.3894043 188.61791992 C168.54215349 173.40549401 171.40753611 158.15320422 171.3347168 141.39526367 C171.33289398 140.73229279 171.33107117 140.0693219 171.32919312 139.38626099 C171.21157843 114.00255926 163.29467473 90.33214968 145.0222168 72.14526367 C114.86763878 43.79651203 78.38148496 49.14526367 38.0222168 49.14526367 Z " fill="#ff610b" transform="translate(607.977783203125,174.854736328125)"/>
<path d="M0 0 C17.35179623 -0.48417076 37.86157712 2.03796135 51.2421875 14.15625 C55.14720666 18.8044389 58.66639749 23.64224727 61.2421875 29.15625 C64.25085101 27.82123697 66.15878208 26.39355696 68.3671875 23.96875 C82.01880434 10.05847095 102.78329778 0.99436697 122.2421875 0.15625 C122.99242187 0.11628906 123.74265625 0.07632812 124.515625 0.03515625 C143.4614584 -0.48600745 161.54543474 4.98350462 175.6796875 17.90625 C187.78786923 30.88478729 188.35085218 47.78285219 188.5234375 64.49609375 C188.54126241 65.89309257 188.55954758 67.29008558 188.57826233 68.68707275 C188.61710842 71.63399989 188.65357765 74.58094169 188.6880188 77.52792358 C188.77754564 85.15937978 188.8822577 92.79063275 188.98828125 100.421875 C188.99851759 101.16706579 189.00875393 101.91225658 189.01930046 102.68002892 C189.17492372 113.90541916 189.41941642 125.12376919 189.8046875 136.34375 C190.13688665 146.53467828 190.39727073 156.72296289 190.47335815 166.9190979 C190.48574311 168.34946974 190.5031194 169.77980859 190.52590942 171.21005249 C190.55547012 173.15939831 190.56343421 175.10903595 190.5703125 177.05859375 C190.5796582 178.16710693 190.58900391 179.27562012 190.59863281 180.41772461 C190.2421875 183.15625 190.2421875 183.15625 188.90917969 184.97485352 C185.03245896 187.72228345 180.79157354 187.33385409 176.25 187.359375 C175.46704559 187.36507507 174.68409119 187.37077515 173.87741089 187.37664795 C172.22151029 187.38608845 170.56559099 187.39262816 168.90966797 187.39648438 C166.38345384 187.40618752 163.85805442 187.43721782 161.33203125 187.46875 C159.72135899 187.47528075 158.11068092 187.48053094 156.5 187.484375 C155.74776154 187.4967218 154.99552307 187.5090686 154.2204895 187.52178955 C149.7158012 187.50276707 146.81573599 186.9581303 143.2421875 184.15625 C139.64950119 176.97087739 141.04006084 166.43611575 140.9609375 158.58984375 C140.94323248 157.16343145 140.92508468 155.7370246 140.90652466 154.31062317 C140.86788653 151.29576779 140.83162935 148.28089731 140.79718018 145.26599121 C140.74297177 140.57339065 140.68000967 135.88093498 140.61474609 131.18847656 C140.60397474 130.41282537 140.59320339 129.63717419 140.58210564 128.83801842 C140.56038581 127.27716267 140.53862882 125.71630744 140.51683426 124.15545273 C140.47383221 121.06703245 140.43148461 117.97860339 140.38921928 114.89017296 C140.3688382 113.40098695 140.34840877 111.91180161 140.32792854 110.42261696 C140.28248441 107.1165727 140.23762259 103.81052416 140.19396973 100.50445557 C140.11600337 94.62931669 140.02755274 88.75469195 139.91235352 82.88015747 C139.88260545 81.25074742 139.8579008 79.62123626 139.83862305 77.9916687 C139.70967725 67.32743101 139.51279736 57.73510473 131.91796875 49.59375 C125.36453192 43.97215384 116.47654319 43.54842152 108.2421875 44.15625 C95.8827576 45.95248715 86.41381806 51.73659581 78.375 61.23046875 C71.53396407 70.61496675 67.02136747 80.8825143 64.2421875 92.15625 C63.97817642 93.22352577 63.97817642 93.22352577 63.70883179 94.31236267 C63.09837136 98.03271397 63.08955729 101.70426341 63.08447266 105.46313477 C63.07939194 106.28649323 63.07431122 107.10985168 63.06907654 107.9581604 C63.05840344 109.7401938 63.04977135 111.52224035 63.04295731 113.30429268 C63.03113759 116.12447678 63.01167927 118.94450988 62.98983765 121.76463318 C62.92830723 129.78078204 62.87410373 137.79691242 62.84082031 145.81323242 C62.8198972 150.72095623 62.78462051 155.62839941 62.74006271 160.53596306 C62.72589201 162.40544272 62.71717786 164.27497196 62.71400833 166.14450264 C62.70910946 168.75622171 62.68598093 171.36719235 62.65869141 173.97875977 C62.66320061 175.13762444 62.66320061 175.13762444 62.6678009 176.31990051 C62.61838695 179.49809452 62.44222273 181.79032295 60.90365601 184.60484314 C57.28514116 187.98365456 52.67705082 187.33400224 48.03125 187.359375 C47.22609955 187.36507507 46.4209491 187.37077515 45.59140015 187.37664795 C43.88842072 187.38608936 42.1854231 187.39262852 40.48242188 187.39648438 C37.88378877 187.40618801 35.28594747 187.43721784 32.6875 187.46875 C31.03125469 187.47528067 29.37500373 187.48053089 27.71875 187.484375 C26.94463776 187.4967218 26.17052551 187.5090686 25.37295532 187.52178955 C20.83367916 187.50314622 17.79737689 187.07179566 14.2421875 184.15625 C13.29361068 181.31051953 13.12247553 179.5949214 13.13539124 176.64878845 C13.13766472 175.26332321 13.13766472 175.26332321 13.13998413 173.84986877 C13.15009018 172.33271523 13.15009018 172.33271523 13.16040039 170.78491211 C13.16346695 169.71789062 13.16653351 168.65086914 13.16969299 167.55151367 C13.17685507 165.23032321 13.1862487 162.90913883 13.19758797 160.58796501 C13.21495783 156.90943373 13.22527203 153.23094581 13.23350525 149.55238342 C13.25796981 139.09160248 13.29339773 128.63087956 13.33813477 118.17016602 C13.3649945 111.77358449 13.3819893 105.37703709 13.39300346 98.98040962 C13.39919489 96.54646104 13.40917708 94.11251895 13.42308235 91.67860222 C13.44240894 88.2634747 13.44921051 84.84852466 13.45336914 81.43334961 C13.46213074 80.43608353 13.47089233 79.43881744 13.47991943 78.41133118 C13.4651159 67.70306254 12.15821367 57.4234209 4.6171875 49.34375 C-1.72465742 44.61532154 -10.04083501 43.24469764 -17.7578125 44.15625 C-30.93573024 46.43500521 -41.47290248 52.0130765 -49.3828125 62.90625 C-58.34253505 76.38583259 -63.74847287 91.74366038 -64.02319336 107.99414062 C-64.03963394 108.7559111 -64.05607452 109.51768158 -64.07301331 110.30253601 C-64.1081118 111.9475581 -64.14131231 113.59262158 -64.17280388 115.23771667 C-64.22327297 117.84435256 -64.27999672 120.4507841 -64.33851624 123.05725098 C-64.50398416 130.46490301 -64.66036829 137.87272029 -64.80737305 145.28076172 C-64.89788999 149.82011705 -64.99746756 154.35920068 -65.10263252 158.89823914 C-65.14078121 160.62367968 -65.1754496 162.34920091 -65.2065258 164.07478333 C-65.25020165 166.48957767 -65.30537319 168.90386421 -65.36303711 171.31835938 C-65.37297699 172.02606979 -65.38291687 172.73378021 -65.39315796 173.4629364 C-65.50878553 177.69902838 -66.1328923 181.23642044 -67.7578125 185.15625 C-71.1901333 188.05522249 -75.78739273 187.46207643 -80.06640625 187.45703125 C-80.87014175 187.46131638 -81.67387726 187.4656015 -82.50196838 187.47001648 C-84.19897522 187.47574992 -85.89600662 187.4762673 -87.59301758 187.47192383 C-90.18288294 187.46876516 -92.77160401 187.49222969 -95.36132812 187.51757812 C-97.0130194 187.51985143 -98.66471373 187.52055447 -100.31640625 187.51953125 C-101.08738144 187.528741 -101.85835663 187.53795074 -102.6526947 187.54743958 C-107.19310933 187.50856385 -110.15763195 186.99104124 -113.7578125 184.15625 C-119.12784897 173.41617705 -114.72613592 151.05048129 -114.34245682 138.74909782 C-113.83491182 122.12380828 -113.64153389 105.50339147 -113.546875 88.87109375 C-113.53256421 86.58397342 -113.51812904 84.29685387 -113.50357056 82.00973511 C-113.44529221 72.63306514 -113.38921306 63.25643736 -113.35644531 53.87963867 C-113.3355517 48.04560163 -113.30037101 42.21180238 -113.25568771 36.37790108 C-113.24157468 34.17989431 -113.23281595 31.98184609 -113.22963333 29.78379631 C-113.22474368 26.7448464 -113.20166194 23.70654348 -113.17431641 20.66772461 C-113.17882561 19.32552353 -113.17882561 19.32552353 -113.1834259 17.95620728 C-113.11988497 13.2189609 -112.86989029 9.98663894 -109.7578125 6.15625 C-106.67861495 4.61665123 -103.42817602 4.95159882 -100.046875 4.91796875 C-99.28233002 4.909897 -98.51778503 4.90182526 -97.73007202 4.89350891 C-96.11108669 4.87967187 -94.49207224 4.86894801 -92.87304688 4.86108398 C-90.39917684 4.84386391 -87.92664104 4.79997649 -85.453125 4.75585938 C-83.88021816 4.74573285 -82.30729996 4.73721662 -80.734375 4.73046875 C-79.62638046 4.70420662 -79.62638046 4.70420662 -78.4960022 4.67741394 C-75.10652163 4.69170299 -73.11715917 4.9002795 -70.32470703 6.8894043 C-68.62342577 9.35066895 -68.09486507 10.90358943 -67.7109375 13.8515625 C-67.58847656 14.73199219 -67.46601562 15.61242187 -67.33984375 16.51953125 C-67.23027344 17.43089844 -67.12070313 18.34226562 -67.0078125 19.28125 C-66.88277344 20.20035156 -66.75773437 21.11945313 -66.62890625 22.06640625 C-65.7578125 28.58525069 -65.7578125 28.58525069 -65.7578125 31.15625 C-62.99692244 29.1053031 -60.79718804 27.20755752 -58.6953125 24.46875 C-46.70276395 9.76581122 -26.47250612 2.99442404 -8.3203125 0.40625 C-5.5495404 0.1955449 -2.77666574 0.11545388 0 0 Z " fill="#ff610b" transform="translate(1205.7578125,268.84375)"/>
<path d="M0 0 C19.595049 16.88509542 29.63610843 41.37292938 31.85498047 66.90576172 C33.82112722 95.29903916 28.60285258 123.27634001 9.5859375 145.34375 C-9.24266068 164.68430402 -34.00243916 172.29403132 -60.5390625 172.99511719 C-82.2368185 173.03816829 -102.54911925 166.26634645 -119 152 C-119.75586394 156.71954934 -120.13168194 161.25568308 -120.15771484 166.03344727 C-120.16279556 166.69782806 -120.16787628 167.36220886 -120.17311096 168.04672241 C-120.18373528 169.47621447 -120.19238592 170.90572234 -120.19923019 172.3352375 C-120.21112251 174.60166442 -120.23059729 176.86790948 -120.25234985 179.13426208 C-120.31364402 185.57341447 -120.36804682 192.01254112 -120.40136719 198.4519043 C-120.42235037 202.40236618 -120.45766993 206.35248331 -120.50212479 210.30274773 C-120.51624184 211.80214312 -120.52499749 213.30159934 -120.52817917 214.80105782 C-120.53310704 216.89972043 -120.55630715 218.99747115 -120.58349609 221.09594727 C-120.59158295 222.28728775 -120.5996698 223.47862823 -120.60800171 224.70606995 C-121.04732771 228.39769093 -122.07650818 230.83502169 -124 234 C-127.34904921 235.6745246 -131.12080251 235.18475107 -134.8046875 235.203125 C-135.68021271 235.20882507 -136.55573792 235.21452515 -137.45779419 235.22039795 C-139.31218251 235.22985248 -141.16658767 235.23638373 -143.02099609 235.24023438 C-145.85674389 235.24993753 -148.69176622 235.28095525 -151.52734375 235.3125 C-153.32812069 235.31903029 -155.12890282 235.32428066 -156.9296875 235.328125 C-158.20173538 235.3466452 -158.20173538 235.3466452 -159.4994812 235.36553955 C-162.97894521 235.35238935 -165.36892735 235.32015033 -168.50439453 233.72949219 C-174.68256603 226.58516197 -170.91126868 209.51136149 -170.59765625 200.62890625 C-170.5113306 198.04281621 -170.42532613 195.45671544 -170.33959961 192.87060547 C-170.3171241 192.20074836 -170.29464859 191.53089125 -170.271492 190.84073544 C-169.47238548 167.02215109 -168.80837117 143.20455656 -168.4375 119.375 C-168.41774109 118.15478149 -168.39798218 116.93456299 -168.37762451 115.67736816 C-168.12323247 99.65976449 -167.97703908 83.6431112 -167.89451599 67.62371826 C-167.85480836 59.96284478 -167.80256805 52.30206547 -167.74852848 44.64128113 C-167.70404428 38.12397964 -167.67807675 31.60692457 -167.66531563 25.08948803 C-167.65330045 21.01082169 -167.62489189 16.93238582 -167.59218597 12.85383797 C-167.5802883 10.93560885 -167.57536516 9.01732274 -167.57770538 7.09905815 C-167.58002625 4.45724041 -167.55799016 1.81669434 -167.5300293 -0.82495117 C-167.53992716 -1.98761977 -167.53992716 -1.98761977 -167.55002499 -3.17377663 C-167.48941291 -6.64400377 -167.26121384 -8.64301573 -165.18635559 -11.47859192 C-162.02725702 -13.67689768 -159.026325 -13.57357219 -155.3125 -13.53125 C-154.57298096 -13.5350769 -153.83346191 -13.53890381 -153.0715332 -13.54284668 C-151.5115421 -13.54556271 -149.95150522 -13.53822292 -148.39160156 -13.52148438 C-146.00742814 -13.50006673 -143.62626751 -13.52129263 -141.2421875 -13.546875 C-139.7239517 -13.54423166 -138.20571777 -13.53910656 -136.6875 -13.53125 C-135.97698486 -13.53934692 -135.26646973 -13.54744385 -134.53442383 -13.55578613 C-131.16165684 -13.49207605 -129.31243878 -13.23711872 -126.59375 -11.17382812 C-123.14550224 -6.4705196 -122.69273044 -0.65729859 -122 5 C-117.94783651 5 -116.55242513 3.40656923 -113.3125 1 C-80.12029166 -22.78238759 -32.79807455 -26.43926418 0 0 Z M-110.8359375 41.37890625 C-111.55007813 42.24386719 -112.26421875 43.10882813 -113 44 C-113.63164063 44.75152344 -114.26328125 45.50304687 -114.9140625 46.27734375 C-120.74499115 54.80265886 -119.9536709 65.13341904 -119.98095703 75.06396484 C-119.99892648 77.83448541 -120.07983475 80.59482605 -120.18359375 83.36328125 C-120.60457507 96.90025698 -118.30496491 105.72494301 -109 116 C-99.22882209 126.37285143 -84.93155422 130.6481363 -71 131.375 C-54.37987207 130.47369154 -40.4207345 124.26522543 -29 112 C-18.00129141 98.75924696 -15.69852678 84.73223813 -17 68 C-19.5830153 54.27071217 -26.5999214 42.5991622 -37.60546875 33.953125 C-60.48129125 18.50451759 -91.90668206 20.63071584 -110.8359375 41.37890625 Z " fill="#ff610b" transform="translate(1602,287)"/>
<path d="M0 0 C0.84812759 -0.00619858 1.69625519 -0.01239716 2.57008362 -0.01878357 C4.36124526 -0.0258775 6.15247289 -0.0227151 7.94360352 -0.01000977 C10.67913697 0.00384411 13.41124047 -0.03020234 16.14648438 -0.06835938 C17.88932375 -0.06931074 19.6321674 -0.06745079 21.375 -0.0625 C22.18972275 -0.07575821 23.0044455 -0.08901642 23.84385681 -0.10267639 C24.61137772 -0.09014328 25.37889862 -0.07761017 26.16967773 -0.06469727 C26.83934067 -0.0637355 27.5090036 -0.06277374 28.19895935 -0.06178284 C31.75798494 1.02619712 33.07727324 2.54837137 35.25390625 5.56640625 C35.9818096 9.31785777 35.90289384 13.01229229 35.84985352 16.82324219 C35.85391205 17.96043701 35.85797058 19.09763184 35.8621521 20.26928711 C35.86767025 22.73722084 35.8616584 25.20520112 35.84549141 27.67308807 C35.82010414 31.58287003 35.82486063 35.49159586 35.83738708 39.40142822 C35.85803563 47.00132384 35.84247237 54.60092673 35.82191467 62.20080566 C35.79505366 72.51721997 35.78885671 82.8333124 35.81690788 93.14972687 C35.82026359 96.99473442 35.79905902 100.83909052 35.77650452 104.684021 C35.77901688 107.05334615 35.782578 109.42267051 35.78735352 111.79199219 C35.77446793 112.85516663 35.76158234 113.91834106 35.74830627 115.01373291 C35.8030304 123.18114314 37.37173662 129.98719253 43.31640625 135.87890625 C51.64624225 142.34171004 62.94324988 144.39185909 73.25390625 143.56640625 C88.82118144 141.25407415 100.57765523 135.58456437 110.328125 122.859375 C122.46135658 104.46213232 124.37208465 86.03884035 124.42257118 64.5302124 C124.42984752 62.07490981 124.44558604 59.61979461 124.46391296 57.16455078 C124.51592115 50.19387061 124.56445742 43.22331235 124.57983398 36.25244141 C124.58990288 31.96549489 124.61917005 27.67905133 124.66115379 23.39230347 C124.67345454 21.76565344 124.67858673 20.13893255 124.67635536 18.51223755 C124.67400716 16.24588777 124.69611893 13.98099645 124.72387695 11.71484375 C124.72974319 10.42755371 124.73560944 9.14026367 124.74165344 7.81396484 C125.25390625 4.56640625 125.25390625 4.56640625 127.03886414 2.15197754 C129.38827892 0.47021961 130.38653814 0.06227064 133.22460938 0.04882812 C133.99220581 0.03621948 134.75980225 0.02361084 135.55065918 0.01062012 C136.37054321 0.01871704 137.19042725 0.02681396 138.03515625 0.03515625 C139.31090515 0.02941589 139.31090515 0.02941589 140.61242676 0.02355957 C142.40780829 0.02084167 144.20322949 0.02819443 145.99853516 0.04492188 C148.74471418 0.06633458 151.48827722 0.04511754 154.234375 0.01953125 C155.98047452 0.02217455 157.72657241 0.02729958 159.47265625 0.03515625 C160.29254028 0.02705933 161.11242432 0.0189624 161.95715332 0.01062012 C162.72474976 0.02322876 163.49234619 0.0358374 164.28320312 0.04882812 C165.29102844 0.05360168 165.29102844 0.05360168 166.31921387 0.05847168 C169.21564262 0.81890073 170.37469451 2.26666276 172.25390625 4.56640625 C172.77733231 7.32133961 172.77733231 7.32133961 172.81085205 10.54927063 C172.83317902 11.77523956 172.85550598 13.0012085 172.87850952 14.264328 C172.88323991 15.62063476 172.88759112 16.97694288 172.89160156 18.33325195 C172.91020508 19.76450865 172.93054318 21.1957437 172.95248413 22.62695312 C173.00717536 26.5185862 173.03742829 30.41007386 173.06334019 34.30199075 C173.09469395 38.39535618 173.14828424 42.48843105 173.19940186 46.58158875 C173.29311703 54.35962344 173.36647776 62.13771475 173.4327476 69.91602629 C173.50843246 78.67567263 173.60776758 87.43499867 173.70871592 96.19438422 C173.89802183 112.72048825 174.08161148 129.24674759 174.1920166 145.77359009 C174.22551191 150.73523716 174.28670639 155.69493694 174.37731934 160.65585327 C174.40498918 162.7447697 174.43254523 164.83368764 174.45996094 166.92260742 C174.48398609 167.84496594 174.50801125 168.76732447 174.53276443 169.71763325 C174.57847559 174.46449519 174.48618537 177.78376084 171.25390625 181.56640625 C167.73497633 182.73938289 164.54477215 182.72850141 160.8828125 182.734375 C160.16407455 182.7377034 159.44533661 182.7410318 158.70481873 182.74446106 C157.1859501 182.74951918 155.66707039 182.75186973 154.14819336 182.75170898 C151.82842653 182.75389492 149.50913581 182.77206035 147.18945312 182.79101562 C145.71224121 182.79394992 144.23502703 182.79593447 142.7578125 182.796875 C142.06603409 182.80406052 141.37425568 182.81124603 140.66151428 182.81864929 C137.05629868 182.80160316 134.20011514 182.76466118 131.25390625 180.56640625 C129.41564049 177.75988219 128.86669801 175.09347508 128.40234375 171.80078125 C128.2734375 170.91132813 128.14453125 170.021875 128.01171875 169.10546875 C127.88539063 168.18507813 127.7590625 167.2646875 127.62890625 166.31640625 C127.4278125 164.91261719 127.4278125 164.91261719 127.22265625 163.48046875 C126.89353026 161.1765868 126.57084476 158.87199101 126.25390625 156.56640625 C122.41184479 159.82988086 118.62957261 163.12889197 114.94140625 166.56640625 C96.84953992 182.50664359 70.37873611 187.59464983 46.80859375 186.38671875 C27.51503581 184.95849979 10.01437587 178.49760251 -3.515625 164.30078125 C-12.31853608 153.50912143 -14.07845311 141.25340518 -13.9765625 127.73046875 C-13.9766481 126.68899185 -13.9767337 125.64751495 -13.9768219 124.57447815 C-13.97351651 121.11332646 -13.95450292 117.65249365 -13.93359375 114.19140625 C-13.92393979 111.73478273 -13.91450548 109.27815834 -13.90527344 106.8215332 C-13.8781171 100.6912432 -13.83722015 94.56114621 -13.79201698 88.4309721 C-13.75144642 82.76146467 -13.72566023 77.09197005 -13.70361328 71.42236328 C-13.67211907 63.48334235 -13.62365022 55.54459779 -13.55737209 47.60578918 C-13.52113583 43.24647768 -13.49097452 38.88733375 -13.47592163 34.52789307 C-13.46099863 30.3916043 -13.42675033 26.25591007 -13.37797356 22.1198864 C-13.3631001 20.58460492 -13.35503964 19.04924067 -13.3541584 17.51388741 C-13.35181107 15.40338048 -13.32496 13.29454518 -13.29199219 11.18432617 C-13.27866852 9.40369026 -13.27866852 9.40369026 -13.26507568 7.58708191 C-11.97378753 0.07128523 -6.55127122 -0.03978398 0 0 Z " fill="#ff610b" transform="translate(879.74609375,273.43359375)"/>
<path d="M0 0 C13.50437221 12.27277347 21.98318717 27.65946244 27.25390625 44.96875 C27.47328857 45.67805664 27.6926709 46.38736328 27.91870117 47.11816406 C29.20746097 51.56144571 29.99874403 55.55737951 29.44140625 60.21875 C26.10174875 64.77072574 21.29307856 66.095457 16.1796875 67.93359375 C15.25376297 68.27607651 14.32783844 68.61855927 13.37385559 68.97142029 C10.40083393 70.0665477 7.42197306 71.14434347 4.44140625 72.21875 C3.48699646 72.56512512 2.53258667 72.91150024 1.54925537 73.26837158 C-4.37166145 75.41681602 -10.30056961 77.54235726 -16.23260498 79.65988159 C-32.79355499 85.57703711 -49.33655664 91.54433625 -65.81698608 97.68258667 C-67.549874 98.3274099 -69.28360997 98.96995901 -71.01821899 99.61013794 C-73.4066308 100.49251767 -75.79162759 101.38353344 -78.17578125 102.27734375 C-78.87131607 102.53280975 -79.56685089 102.78827576 -80.28346252 103.05148315 C-83.78672301 104.377654 -86.70294616 105.77590707 -89.55859375 108.21875 C-81.21649165 121.86946252 -71.04138639 129.69705499 -55.62109375 134.09375 C-34.48260678 139.12378413 -15.79307907 133.70032623 2.94140625 123.84375 C7.45730164 121.54331404 10.42116652 120.06827839 15.44140625 121.21875 C19.62864188 125.47519614 21.78756508 130.7808853 24.19140625 136.15625 C24.60261719 137.03732422 25.01382812 137.91839844 25.4375 138.82617188 C29.20459896 147.18012057 29.20459896 147.18012057 28.44140625 152.21875 C17.50158615 166.8051768 -7.55130068 171.66304523 -24.55859375 174.21875 C-54.5013731 178.35629769 -85.63063551 176.01567875 -110.55859375 157.21875 C-130.25078575 141.12296088 -141.33908172 119.58517904 -144.2421875 94.3203125 C-146.61006555 66.80975214 -142.20129503 38.37362946 -124.296875 16.44921875 C-122.11061583 13.973438 -119.85771247 11.58945301 -117.55859375 9.21875 C-117.01976562 8.60644531 -116.4809375 7.99414062 -115.92578125 7.36328125 C-107.69378225 -1.67537091 -95.96790824 -7.81074578 -84.55859375 -11.78125 C-83.29208984 -12.22404297 -83.29208984 -12.22404297 -82 -12.67578125 C-55.26297083 -20.93699422 -21.884236 -18.35673004 0 0 Z M-77.55859375 31.21875 C-79.07453125 32.270625 -79.07453125 32.270625 -80.62109375 33.34375 C-93.19372125 44.34479906 -96.29620009 61.48593354 -97.55859375 77.21875 C-89.54053431 75.15039828 -81.72930394 72.66438117 -73.91015625 69.9453125 C-72.73576996 69.53969086 -71.56138367 69.13406921 -70.35140991 68.71615601 C-67.88179208 67.86228907 -65.41277541 67.00668158 -62.94433594 66.14941406 C-59.20269154 64.85038042 -55.45893951 63.55757401 -51.71484375 62.265625 C-49.30065334 61.43005697 -46.88658674 60.59413113 -44.47265625 59.7578125 C-43.3712027 59.37742828 -42.26974915 58.99704407 -41.13491821 58.60513306 C-33.54686517 55.96567607 -26.04106267 53.14372294 -18.55859375 50.21875 C-22.9901005 38.85633382 -30.13730208 30.46672138 -41.12890625 25.1640625 C-53.28863669 20.43310628 -67.34976798 23.56789186 -77.55859375 31.21875 Z " fill="#ff610b" transform="translate(1800.55859375,284.78125)"/>
<path d="M0 0 C1.16595703 -0.01836914 1.16595703 -0.01836914 2.35546875 -0.03710938 C7.32038365 -0.04962597 11.47048852 0.39592973 16.125 2.1875 C19.85583022 7.78374533 17.63681895 15.26624579 16.52050781 21.63769531 C15.81918582 25.04453561 15.05034394 28.42763076 14.25 31.8125 C13.99347656 32.96878906 13.73695312 34.12507813 13.47265625 35.31640625 C13.21613281 36.42113281 12.95960937 37.52585937 12.6953125 38.6640625 C12.46602051 39.65486816 12.23672852 40.64567383 12.00048828 41.66650391 C11.08033527 44.3161135 10.34355334 45.50731743 8.125 47.1875 C3.64590556 48.2585878 -0.47062451 48.14298055 -5.0625 48 C-16.81714896 47.95955969 -25.50753221 52.04536797 -33.875 60.1875 C-49.62692326 76.84056303 -51.9757432 99.93965326 -52.07423019 121.67240715 C-52.08616281 124.07266416 -52.10564172 126.47275256 -52.12734985 128.87294006 C-52.18854641 135.68908136 -52.24320817 142.50519253 -52.27636719 149.3215332 C-52.2972733 153.50885061 -52.33251701 157.6958379 -52.37712479 161.882967 C-52.39128823 163.47415869 -52.40000801 165.06540851 -52.40317917 166.65666008 C-52.40807137 168.87294301 -52.43117497 171.08833974 -52.45849609 173.30444336 C-52.46658295 174.56445663 -52.4746698 175.82446991 -52.48300171 177.12266541 C-52.875 180.1875 -52.875 180.1875 -54.27603149 182.05519104 C-58.00812954 184.6980749 -61.57165245 184.36666278 -65.98828125 184.390625 C-66.79484665 184.39632507 -67.60141205 184.40202515 -68.43241882 184.40789795 C-70.14137458 184.41735195 -71.8503486 184.42388352 -73.55932617 184.42773438 C-76.16683041 184.4374232 -78.77354078 184.468435 -81.38085938 184.5 C-83.04166199 184.50653185 -84.70247024 184.51178161 -86.36328125 184.515625 C-87.5291552 184.5341452 -87.5291552 184.5341452 -88.71858215 184.55303955 C-93.26615483 184.53444428 -96.31396364 184.11100081 -99.875 181.1875 C-100.82045401 178.35113798 -101.00148974 176.62325109 -101.00439453 173.68579102 C-101.00748627 172.74923172 -101.010578 171.81267242 -101.01376343 170.84773254 C-101.01179962 169.80614487 -101.00983582 168.76455719 -101.0078125 167.69140625 C-101.00931305 166.56768112 -101.0108136 165.44395599 -101.01235962 164.28617859 C-101.01477586 160.44076184 -101.00833149 156.59540384 -101 152.75 C-100.99771978 151.40140795 -100.99548226 150.05281582 -100.99328613 148.70422363 C-100.97779222 140.08439523 -100.94635651 131.46466853 -100.90945435 122.84490776 C-100.88330049 116.61823484 -100.86366804 110.39156498 -100.84665108 104.16486073 C-100.81299443 91.96115982 -100.76216443 79.75769083 -100.68788338 67.55416584 C-100.65049949 61.3709087 -100.61967352 55.18778021 -100.60455322 49.00442505 C-100.58959124 43.09774546 -100.55536901 37.19147859 -100.50681686 31.28498268 C-100.49194819 29.0774876 -100.48394933 26.86993474 -100.48308182 24.66238976 C-100.48073666 21.62115035 -100.45389161 18.5810781 -100.42089844 15.54003906 C-100.42844493 14.19741926 -100.42844493 14.19741926 -100.43614388 12.82767582 C-100.3346691 6.83544226 -100.3346691 6.83544226 -98.06510925 3.63630676 C-94.8467733 1.5073048 -91.73759567 1.59569976 -88.00390625 1.62109375 C-87.24456284 1.61489517 -86.48521942 1.60869659 -85.7028656 1.60231018 C-84.10001912 1.59521999 -82.49709887 1.5983722 -80.89428711 1.61108398 C-78.44832015 1.62493871 -76.00619005 1.59088985 -73.56054688 1.55273438 C-71.99999907 1.55178297 -70.43944649 1.55364313 -68.87890625 1.55859375 C-67.7880648 1.53870644 -67.7880648 1.53870644 -66.67518616 1.51841736 C-62.92535846 1.58678282 -61.01066514 2.08965282 -57.94628906 4.29980469 C-55.49189518 7.72160701 -55.07993491 9.84433024 -54.73046875 14.01953125 C-54.55161133 15.95795898 -54.55161133 15.95795898 -54.36914062 17.93554688 C-54.26643871 19.29032765 -54.16423131 20.645146 -54.0625 22 C-53.94281372 23.37452975 -53.82108917 24.74888364 -53.69726562 26.12304688 C-53.4030874 29.47667865 -53.12979938 32.8306847 -52.875 36.1875 C-50.59951517 33.19527709 -48.58649566 30.14555364 -46.625 26.9375 C-37.99899404 13.40545315 -27.31753629 4.66401801 -11.609375 0.6015625 C-7.73373775 0.01468029 -3.9144448 0.00321383 0 0 Z " fill="#ff610b" transform="translate(1960.875,271.8125)"/>
<path d="M0 0 C2.97 0 5.94 0 9 0 C9 211.2 9 422.4 9 640 C6.03 640 3.06 640 0 640 C0 428.8 0 217.6 0 0 Z " fill="#ff610b" transform="translate(468,7)"/>
<path d="M0 0 C3.99843155 2.10087082 6.52638085 4.04013349 8.09375 8.28125 C8.76619329 13.29935805 8.64955467 17.10550936 6.46875 21.71875 C2.82710668 25.64789148 -0.57627467 27.40342703 -5.90625 27.71875 C-11.01365547 27.51367253 -14.12317942 25.00283539 -17.71875 21.53125 C-20.29113157 16.65726386 -20.3167767 12.64967233 -18.78125 7.53125 C-14.77804679 0.59236443 -7.94388749 -2.99523626 0 0 Z " fill="#ff610b" transform="translate(333.90625,441.71875)"/>
<path d="M0 0 C3.26033777 2.68498405 4.86019812 4.81888388 5.4453125 9.0859375 C5.70280268 14.80221952 5.09324538 18.35275511 1.125 22.75 C-2.5649827 25.91284231 -5.95353854 26.26992627 -10.66015625 26.10546875 C-14.97532463 25.41291086 -17.64130195 22.94115674 -20.6875 20 C-23.25988157 15.12601386 -23.2855267 11.11842233 -21.75 6 C-16.70534509 -2.74406852 -8.78933265 -3.82144898 0 0 Z " fill="#ff610b" transform="translate(336.875,362.25)"/>
<path d="M0 0 C2.75103707 2.4941065 3.86152471 4.39529467 4.30078125 8.17578125 C4.48165946 13.68780683 3.85009517 16.82556765 0.0625 21.125 C-3.66977781 24.32409526 -7.04539149 24.59124129 -11.79296875 24.41015625 C-16.01297302 23.84902636 -18.22073867 21.8218513 -21.1875 18.9375 C-23.38976339 15.39814812 -24.13311947 12.24083369 -23.9375 8.125 C-22.37990269 2.93300898 -20.52722091 0.03555473 -15.9375 -2.875 C-10.34723076 -5.38098276 -4.47964038 -3.71459892 0 0 Z " fill="#ff610b" transform="translate(337.9375,282.875)"/>
</svg>
