<?xml version="1.0" standalone="no"?>
<!DOCTYPE svg PUBLIC "-//W3C//DTD SVG 20010904//EN"
 "http://www.w3.org/TR/2001/REC-SVG-20010904/DTD/svg10.dtd">
<svg version="1.0" xmlns="http://www.w3.org/2000/svg"
 width="2000.000000pt" height="598.000000pt" viewBox="0 0 2000.000000 598.000000"
 preserveAspectRatio="xMidYMid meet">

<g transform="translate(0.000000,598.000000) scale(0.100000,-0.100000)"
fill="#ff610b" stroke="none">
<path d="M3990 2990 l0 -2940 55 0 55 0 0 2940 0 2940 -55 0 -55 0 0 -2940z"/>
<path d="M1308 4629 c-567 -50 -962 -224 -1081 -477 l-32 -67 0 -1046 0 -1045
37 -76 c116 -234 462 -394 998 -460 138 -17 592 -17 730 0 521 65 876 230 991
459 l34 68 0 1055 0 1055 -32 65 c-34 69 -116 159 -194 213 -185 126 -524 225
-884 256 -135 12 -435 12 -567 0z m682 -213 c354 -50 628 -155 740 -282 225
-257 -195 -528 -904 -584 -647 -51 -1305 118 -1417 363 -26 57 -24 104 7 165
86 173 449 311 934 356 97 9 539 -3 640 -18z m-1450 -870 c457 -233 1295 -273
1879 -90 126 39 253 95 321 142 l45 31 3 -191 c2 -177 1 -194 -19 -234 -75
-157 -396 -290 -829 -345 -136 -18 -552 -18 -690 -1 -449 55 -765 188 -839
352 -18 40 -21 66 -21 233 l0 189 33 -21 c17 -12 70 -41 117 -65z m58 -623
c159 -74 356 -126 597 -159 181 -25 607 -25 790 -1 334 45 609 137 750 252
l55 45 0 -205 c0 -229 -3 -246 -65 -314 -271 -299 -1297 -398 -1932 -186 -203
68 -338 158 -382 255 -19 40 -21 65 -21 247 l0 202 68 -51 c37 -28 100 -67
140 -85z m-108 -540 c311 -208 994 -297 1585 -207 281 43 529 133 659 239 l56
45 0 -207 c0 -189 -2 -210 -21 -250 -73 -151 -365 -278 -784 -340 -170 -25
-620 -25 -790 0 -417 62 -703 186 -779 339 -25 51 -26 56 -26 257 l0 205 28
-26 c15 -14 47 -39 72 -55z"/>
<path d="M2429 3312 c-28 -25 -34 -37 -34 -72 0 -35 6 -47 33 -71 36 -32 69
-36 112 -14 85 44 60 169 -36 182 -36 5 -46 1 -75 -25z"/>
<path d="M2428 2711 c-27 -24 -33 -36 -33 -71 0 -35 6 -47 34 -72 29 -26 39
-30 75 -25 52 7 86 44 86 93 0 46 -14 70 -50 89 -43 22 -76 18 -112 -14z"/>
<path d="M2455 2131 c-37 -16 -60 -51 -60 -93 0 -33 6 -45 33 -69 44 -40 93
-40 133 0 76 76 -7 202 -106 162z"/>
<path d="M5120 4588 c-49 -26 -50 -37 -39 -414 8 -232 9 -668 4 -1304 -5 -525
-9 -1011 -9 -1078 -1 -119 0 -125 23 -143 22 -18 47 -19 580 -19 419 0 582 4
661 14 344 46 627 182 855 411 193 194 316 425 372 702 14 69 18 137 18 308 0
190 -3 235 -23 333 -65 321 -188 569 -377 757 -230 231 -532 366 -950 426
-125 17 -1083 24 -1115 7z m1125 -509 c217 -27 388 -111 536 -265 81 -86 120
-143 169 -247 72 -154 85 -223 84 -462 0 -226 -9 -281 -68 -425 -78 -195 -247
-361 -456 -449 -167 -71 -304 -91 -632 -91 l-258 0 0 975 0 975 268 0 c147 0
308 -5 357 -11z"/>
<path d="M17186 3599 c-392 -51 -695 -322 -795 -714 -46 -179 -46 -423 -1
-599 87 -342 326 -579 677 -673 90 -24 114 -27 303 -27 176 0 220 3 308 22
146 32 254 68 353 117 105 53 149 89 149 121 0 33 -97 248 -126 279 -13 14
-32 25 -43 25 -10 0 -54 -18 -97 -41 -111 -59 -238 -105 -327 -119 -204 -33
-429 28 -558 152 -57 55 -111 133 -107 155 2 10 41 31 103 55 106 41 830 306
976 356 147 51 189 78 189 122 0 38 -44 188 -81 273 -71 167 -219 338 -354
409 -159 82 -361 113 -569 87z m259 -426 c61 -21 186 -142 227 -218 l27 -50
-416 -145 c-229 -80 -420 -146 -424 -148 -15 -6 -10 94 7 171 44 194 165 345
317 392 62 20 202 19 262 -2z"/>
<path d="M11467 3590 c-116 -19 -194 -43 -294 -91 -86 -41 -117 -63 -196 -139
-78 -75 -117 -103 -117 -87 0 1 -6 50 -14 109 -15 113 -25 141 -56 158 -28 15
-339 13 -370 -3 -45 -23 -51 -60 -44 -317 3 -129 0 -482 -8 -785 -7 -302 -13
-599 -13 -658 0 -153 -11 -147 250 -147 185 0 205 2 226 19 27 22 23 -34 39
561 10 400 18 453 89 604 111 235 278 347 497 334 93 -6 147 -29 193 -85 67
-81 65 -61 71 -766 5 -617 6 -639 24 -653 29 -20 423 -20 452 0 18 14 19 34
25 488 6 535 4 520 89 693 109 225 272 334 482 323 104 -5 167 -33 209 -91 58
-80 59 -93 65 -677 3 -294 9 -575 14 -623 12 -133 1 -127 252 -127 200 0 209
1 230 22 21 21 21 23 13 317 -4 163 -10 496 -15 741 -6 408 -9 450 -27 507
-30 90 -64 142 -135 208 -121 112 -279 168 -473 168 -243 0 -445 -82 -629
-253 -35 -33 -67 -60 -72 -60 -5 0 -20 21 -34 47 -89 167 -276 260 -545 268
-66 2 -146 0 -178 -5z"/>
<path d="M15075 3594 c-190 -28 -365 -100 -530 -218 -74 -53 -77 -52 -89 55
-7 64 -24 96 -56 109 -18 7 -85 10 -193 8 -144 -3 -169 -5 -184 -21 -17 -17
-18 -73 -25 -920 -3 -496 -11 -1005 -17 -1132 -6 -126 -11 -292 -11 -367 0
-191 -18 -178 253 -178 116 0 217 4 223 8 29 19 33 60 40 460 6 327 10 412 20
412 7 0 44 -23 81 -52 138 -104 293 -157 491 -165 321 -14 579 78 772 277 117
120 194 269 233 448 27 128 29 375 3 506 -78 397 -328 678 -668 752 -72 15
-284 27 -343 18z m104 -449 c194 -46 360 -212 406 -407 19 -83 19 -215 -1
-292 -48 -184 -198 -339 -389 -399 -91 -28 -251 -30 -339 -3 -148 44 -265 136
-322 251 l-29 60 -3 224 c-3 254 -2 261 74 368 67 94 182 168 306 198 73 18
220 18 297 0z"/>
<path d="M19453 3556 c-139 -32 -268 -134 -362 -288 -28 -45 -52 -86 -54 -92
-13 -34 -27 27 -41 169 -20 218 -7 207 -248 203 -170 -3 -181 -4 -197 -25 -16
-20 -18 -86 -25 -921 -4 -584 -3 -908 3 -925 6 -14 19 -31 30 -36 32 -18 412
-14 437 3 18 14 19 34 25 453 5 361 9 449 23 502 57 221 166 373 316 445 60
28 74 31 185 33 146 2 143 0 178 151 55 233 58 300 15 323 -33 18 -214 21
-285 5z"/>
<path d="M8014 3539 c-12 -6 -27 -22 -33 -35 -8 -18 -11 -235 -11 -738 0 -775
-1 -755 57 -869 33 -67 136 -165 219 -209 38 -20 110 -49 159 -64 84 -26 101
-28 270 -28 161 1 190 3 276 26 191 52 289 103 409 216 43 39 82 72 88 72 5 0
15 -44 21 -97 15 -119 27 -160 51 -173 10 -6 99 -10 198 -10 236 0 227 -6 227
157 0 65 -4 477 -9 916 -9 737 -11 800 -27 820 -16 21 -26 22 -216 25 -188 3
-200 2 -225 -17 l-26 -21 -4 -452 c-6 -516 -8 -532 -92 -703 -75 -152 -190
-258 -333 -306 -54 -18 -90 -23 -173 -24 -174 0 -288 54 -342 163 l-23 47 -5
637 c-5 594 -6 639 -23 655 -16 16 -41 18 -215 20 -124 1 -205 -2 -218 -8z"/>
</g>
</svg>
