<?xml version="1.0" encoding="UTF-8"?>
<svg version="1.1" xmlns="http://www.w3.org/2000/svg" width="954" height="654">
<path d="M0 0 C1.94289696 1.82991278 3.8473694 3.68989657 5.75 5.5625 C6.43191406 6.21992188 7.11382812 6.87734375 7.81640625 7.5546875 C18.21835148 18.39877358 22.06127588 32.20338429 22.01742554 46.83242798 C22.02195665 47.9482788 22.02648776 49.06412963 22.03115618 50.21379411 C22.04378928 53.9428648 22.04218048 57.67178923 22.04052734 61.40087891 C22.04651334 64.07882222 22.05326281 66.7567542 22.06088257 69.43469238 C22.0774618 75.94880438 22.08299076 82.46288018 22.08410732 88.97701152 C22.08505944 94.27609573 22.08917791 99.57516805 22.09550858 104.8742485 C22.11311408 119.91855285 22.12234875 134.96282873 22.12084763 150.00714345 C22.12076772 150.81737889 22.1206878 151.62761432 22.12060547 152.46240234 C22.12052371 153.27363443 22.12044195 154.08486652 22.12035771 154.9206814 C22.11954543 168.05721252 22.13867019 181.1936288 22.1668822 194.33012672 C22.19566267 207.83862399 22.2094196 221.34706536 22.20769465 234.85559404 C22.20703244 242.43148486 22.2124502 250.00725535 22.23405075 257.58311844 C22.25233087 264.03550201 22.25655437 270.48771074 22.2430319 276.94010909 C22.23653584 280.22702187 22.23846831 283.51353307 22.2537384 286.80042648 C22.35052124 309.08490323 20.1471623 325.2135218 4.30859375 342.09375 C-34.374553 379.41855725 -99.84339028 388.562006 -151.15234375 388.765625 C-152.3408342 388.77259399 -153.52932465 388.77956299 -154.75382996 388.78674316 C-158.56508978 388.80403054 -162.37620261 388.8104621 -166.1875 388.8125 C-167.48790222 388.81350708 -168.78830444 388.81451416 -170.12811279 388.81555176 C-189.03330154 388.80563313 -207.52891977 388.3831548 -226.25 385.5625 C-227.79373291 385.3456958 -227.79373291 385.3456958 -229.36865234 385.12451172 C-258.74762071 380.9617613 -288.11438567 373.97344918 -314.25 359.5625 C-315.32507813 358.98757813 -316.40015625 358.41265625 -317.5078125 357.8203125 C-334.69188556 348.2833717 -349.72473855 334.14913657 -355.41954041 314.90074158 C-357.65145419 304.92409374 -356.80197085 294.20275251 -356.76757812 284.04882812 C-356.7730041 281.3586591 -356.77998596 278.66853417 -356.78881836 275.9783783 C-356.80652582 269.45387023 -356.80279854 262.9295471 -356.7911678 256.40503204 C-356.78210293 251.09842095 -356.78092261 245.79186138 -356.78526306 240.48524475 C-356.78587599 239.72753518 -356.78648893 238.9698256 -356.78712043 238.18915513 C-356.78839944 236.64947457 -356.7896963 235.10979402 -356.7910108 233.57011348 C-356.80239382 219.16125419 -356.78933877 204.752497 -356.76780933 190.34365445 C-356.74994041 178.00297766 -356.75304516 165.66245142 -356.77148438 153.32177734 C-356.79293147 138.96149264 -356.80129539 124.60129723 -356.78903532 110.24099874 C-356.78776124 108.70725093 -356.78650375 107.17350309 -356.78526306 105.63975525 C-356.78464596 104.88528902 -356.78402886 104.1308228 -356.78339306 103.35349396 C-356.77995165 98.05848105 -356.78574228 92.76352519 -356.79518127 87.46852112 C-356.80644545 81.00815993 -356.80326906 74.54799294 -356.7820583 68.08765376 C-356.77160673 64.79679355 -356.76950829 61.50631978 -356.78065491 58.21545219 C-356.84784202 36.35764511 -354.64287513 19.66459918 -338.6875 3.375 C-332.16872793 -3.01967936 -325.22801674 -8.03294756 -317.25 -12.4375 C-316.64494629 -12.77442871 -316.03989258 -13.11135742 -315.41650391 -13.45849609 C-240.68683511 -54.39259628 -127.82043581 -53.87353487 0 0 Z M-290.25 5.5625 C-290.88711914 5.84593262 -291.52423828 6.12936523 -292.18066406 6.42138672 C-305.98164366 12.6728382 -320.9265988 21.50686197 -327.3984375 35.859375 C-329.6026536 42.85624446 -329.19140199 49.32210722 -326.0625 55.9375 C-314.49438214 76.03790368 -290.30930658 84.97216582 -269.25 91.5625 C-268.52796387 91.79420898 -267.80592773 92.02591797 -267.06201172 92.26464844 C-252.77415324 96.79551299 -238.04017797 99.29002462 -223.25 101.5625 C-222.1863623 101.73056152 -221.12272461 101.89862305 -220.02685547 102.07177734 C-184.84437439 107.37746483 -146.38302681 107.07050742 -111.25 101.5625 C-110.10112305 101.39089355 -108.95224609 101.21928711 -107.76855469 101.04248047 C-73.0227604 95.75261056 -32.09645099 87.0897815 -9.58203125 57.625 C-5.82412691 51.80630941 -5.53237661 46.31934365 -6.25 39.5625 C-9.20922597 27.54685091 -20.19309471 18.78223195 -30.25 12.5625 C-100.46252334 -27.49341968 -215.08986342 -27.37269477 -290.25 5.5625 Z M-328.25 94.5625 C-328.37746075 101.64238112 -328.46462725 108.72196305 -328.5246582 115.80273438 C-328.54970084 118.2081203 -328.583745 120.61343089 -328.62719727 123.01855469 C-328.6882988 126.48912206 -328.71631363 129.95867772 -328.73828125 133.4296875 C-328.76408768 134.49363739 -328.7898941 135.55758728 -328.81648254 136.65377808 C-328.81971089 145.37572374 -326.33153778 151.55867098 -321.03125 158.4453125 C-287.03579818 191.85865042 -226.93290264 198.79597878 -181.25 199.5625 C-180.2482373 199.58296387 -179.24647461 199.60342773 -178.21435547 199.62451172 C-127.10854907 200.5361736 -55.44265623 197.97236775 -15.88671875 160.3125 C-7.90985973 151.9127362 -5.63352633 144.2024053 -5.859375 132.74609375 C-5.86503479 131.64902603 -5.87069458 130.55195831 -5.87652588 129.42164612 C-5.89876226 125.94730394 -5.94893618 122.47402593 -6 119 C-6.0200814 116.63217644 -6.03832928 114.26433658 -6.0546875 111.89648438 C-6.09858516 106.11813179 -6.16536895 100.34039195 -6.25 94.5625 C-13.53437531 98.48997668 -13.53437531 98.48997668 -20.7265625 102.58203125 C-78.89156182 135.70577156 -160.47570617 137.66375445 -225.25 128.5625 C-226.4757373 128.39089355 -227.70147461 128.21928711 -228.96435547 128.04248047 C-264.66869147 122.84092442 -296.98988177 112.44154769 -328.25 94.5625 Z M-328.25 171.5625 C-328.3517053 179.24874527 -328.42159403 186.93481595 -328.46972656 194.62158203 C-328.48979933 197.23460373 -328.51706358 199.84758075 -328.55175781 202.46044922 C-328.60046435 206.22374522 -328.62301311 209.98644549 -328.640625 213.75 C-328.66127014 214.91176758 -328.68191528 216.07353516 -328.70318604 217.27050781 C-328.7061752 228.15905119 -325.14496004 234.28721782 -317.71875 242.18359375 C-283.40166364 275.2517988 -222.24552059 279.24189485 -177.25 280.5625 C-176.08476807 280.59754639 -176.08476807 280.59754639 -174.89599609 280.63330078 C-123.84920821 281.92824168 -54.6771781 277.69762472 -15.25 241.0625 C-9.77648074 235.23497203 -6.11776116 228.2929643 -6.13647461 220.26489258 C-6.13658791 218.64355156 -6.13658791 218.64355156 -6.13670349 216.98945618 C-6.14186478 215.82375595 -6.14702606 214.65805573 -6.15234375 213.45703125 C-6.1537587 212.26268967 -6.15517365 211.06834808 -6.15663147 209.83781433 C-6.1622365 206.01685092 -6.17478989 202.19594575 -6.1875 198.375 C-6.19251435 195.78711022 -6.19707737 193.19921952 -6.20117188 190.61132812 C-6.21220757 184.26169882 -6.22895064 177.91210357 -6.25 171.5625 C-6.7970459 171.97432526 -7.3440918 172.38615051 -7.90771484 172.81045532 C-8.98593506 173.62091812 -8.98593506 173.62091812 -10.0859375 174.44775391 C-11.15400635 175.25111679 -11.15400635 175.25111679 -12.24365234 176.07070923 C-39.00735946 195.97047643 -72.45227459 203.8718046 -104.875 208.8125 C-105.86089111 208.96364258 -106.84678223 209.11478516 -107.86254883 209.27050781 C-127.4130773 212.04221246 -147.02269389 212.94476994 -166.75 212.875 C-168.37293472 212.87226578 -168.37293472 212.87226578 -170.02865601 212.86947632 C-219.55801465 212.72985964 -287.94241949 209.03791776 -325.9296875 172.77734375 C-327.07361847 171.44964938 -327.07361847 171.44964938 -328.25 171.5625 Z M-328.25 252.5625 C-328.37738946 260.06963868 -328.46459823 267.57649582 -328.5246582 275.08447266 C-328.54971127 277.63535987 -328.58376328 280.18617595 -328.62719727 282.73681641 C-328.68825144 286.41586927 -328.71630348 290.09396821 -328.73828125 293.7734375 C-328.76408768 294.90300873 -328.7898941 296.03257996 -328.81648254 297.19638062 C-328.82004647 307.39177535 -325.39681335 315.12399735 -318.43359375 322.56640625 C-276.34239453 361.04333434 -202.50860648 363.4515575 -148.44812012 361.13024902 C-105.26208702 359.08338602 -45.47765016 353.78993675 -14.0234375 320.18359375 C-7.01908063 311.6659499 -5.8106194 304.89378897 -5.95703125 294.06640625 C-5.96127609 292.87772446 -5.96552094 291.68904266 -5.96989441 290.46434021 C-5.98662749 286.68432543 -6.0242711 282.90485245 -6.0625 279.125 C-6.07755372 276.55534627 -6.09124092 273.98568414 -6.10351562 271.41601562 C-6.13651352 265.13132695 -6.18665996 258.84695219 -6.25 252.5625 C-6.79237808 252.97178741 -7.33475616 253.38107483 -7.89356995 253.80276489 C-8.96634438 254.61026688 -8.96634438 254.61026688 -10.06079102 255.43408203 C-11.12185814 256.23363815 -11.12185814 256.23363815 -12.20436096 257.04934692 C-54.95915611 288.67494097 -115.15671539 293.8144538 -166.625 293.75 C-167.59554321 293.74906342 -168.56608643 293.74812683 -169.56604004 293.74716187 C-220.37893166 293.6411755 -286.4662731 288.9048132 -326.25 253.5625 C-326.91 253.2325 -327.57 252.9025 -328.25 252.5625 Z " fill="#ff610b" transform="translate(374.25,147.4375)"/>
<path d="M0 0 C0.81366028 -0.00335861 1.62732056 -0.00671722 2.46563721 -0.01017761 C5.16810626 -0.01970582 7.87051321 -0.0216332 10.57299805 -0.02270508 C12.46656825 -0.02592184 14.3601382 -0.02928623 16.25370789 -0.03279114 C20.23929416 -0.03879088 24.22485875 -0.04063072 28.21044922 -0.04003906 C33.25388852 -0.03993864 38.29718319 -0.0534609 43.34058857 -0.07081127 C47.26436463 -0.08209122 51.18810783 -0.08395327 55.11189842 -0.08342934 C56.96653926 -0.08459057 58.82118149 -0.08890441 60.67580605 -0.0967617 C78.26686816 -0.16417304 96.04878486 0.5493 113.2722168 4.39526367 C114.26543945 4.61142334 115.25866211 4.82758301 116.28198242 5.05029297 C140.14875018 10.43182702 161.25556656 20.29324374 180.0222168 36.14526367 C180.84592773 36.82202148 181.66963867 37.4987793 182.51831055 38.19604492 C198.31704023 51.67795621 208.01945154 69.88227246 215.0222168 89.14526367 C215.38959961 90.09143555 215.75698242 91.03760742 216.13549805 92.01245117 C228.78714502 126.49917999 228.1021979 169.93126794 213.13549805 203.53588867 C198.33297398 234.93796617 172.60956878 259.24097984 140.07592773 271.42602539 C128.34912434 275.53291588 116.38155211 278.7628279 104.0222168 280.14526367 C103.23249985 280.2368425 102.4427829 280.32842133 101.62913513 280.42277527 C90.76145428 281.49700274 79.84139068 281.34920683 68.93237305 281.38354492 C67.83532988 281.38762045 66.73828671 281.39169598 65.6079998 281.395895 C59.8185839 281.41662748 54.0291909 281.4309929 48.23974609 281.44042969 C42.26547288 281.45156352 36.291565 281.48607937 30.31742191 281.52560139 C25.71151525 281.55169712 21.10569753 281.56011446 16.49972343 281.56371117 C14.29608077 281.56858282 12.09244223 281.58021319 9.88887215 281.59874916 C6.81591168 281.62302561 3.74392487 281.62219837 0.67089844 281.61523438 C-0.69049507 281.63444946 -0.69049507 281.63444946 -2.07939148 281.65405273 C-6.19934909 281.61996939 -8.43515199 281.46779512 -12.0443573 279.32254028 C-14.74150054 276.28522353 -14.62611724 273.64118235 -14.5012207 269.77416992 C-14.49688019 269.01455963 -14.49253967 268.25494934 -14.48806763 267.47232056 C-14.46694165 264.88327899 -14.40946867 262.29625411 -14.3527832 259.70776367 C-14.33041199 257.82603386 -14.3103063 255.94427603 -14.29223633 254.0625 C-14.23298962 248.64779737 -14.14016277 243.23406843 -14.04211426 237.81994629 C-13.93794398 231.86958994 -13.85275391 225.91896138 -13.76647186 219.96832466 C-13.71435966 216.37715054 -13.6614763 212.78598779 -13.60864258 209.19482422 C-13.59801159 208.4698899 -13.5873806 207.74495558 -13.57642746 206.99805355 C-13.51056482 202.51767917 -13.44279172 198.03733771 -13.37385178 193.5570097 C-12.71232835 150.44541479 -12.93051864 107.36313157 -13.62182617 64.25366211 C-13.73759977 57.01422248 -13.8374201 49.77470286 -13.92358398 42.53485107 C-13.95968907 39.51331228 -14.00185829 36.49192772 -14.04760742 33.47052002 C-14.10480088 29.61363676 -14.14582559 25.7568705 -14.17576599 21.899683 C-14.18947883 20.44459487 -14.20838861 18.98954531 -14.23280334 17.5345974 C-14.26550276 15.52910547 -14.2774044 13.52330686 -14.28833008 11.51757812 C-14.30085815 10.37996536 -14.31338623 9.2423526 -14.32629395 8.07026672 C-13.93640938 4.79801879 -13.2930048 3.45512714 -10.9777832 1.14526367 C-7.27775057 -0.08808054 -3.85327605 -0.00227327 0 0 Z M38.0222168 49.14526367 C38.0222168 109.53526367 38.0222168 169.92526367 38.0222168 232.14526367 C73.63357105 233.42963796 73.63357105 233.42963796 109.1472168 228.02026367 C109.879646 227.80781006 110.6120752 227.59535645 111.36669922 227.37646484 C132.17610618 220.9923457 150.70959001 207.86642241 161.3894043 188.61791992 C168.54215349 173.40549401 171.40753611 158.15320422 171.3347168 141.39526367 C171.33289398 140.73229279 171.33107117 140.0693219 171.32919312 139.38626099 C171.21157843 114.00255926 163.29467473 90.33214968 145.0222168 72.14526367 C114.86763878 43.79651203 78.38148496 49.14526367 38.0222168 49.14526367 Z " fill="#ff610b" transform="translate(607.977783203125,174.854736328125)"/>
<path d="M0 0 C2.97 0 5.94 0 9 0 C9 211.2 9 422.4 9 640 C6.03 640 3.06 640 0 640 C0 428.8 0 217.6 0 0 Z " fill="#ff610b" transform="translate(468,7)"/>
<path d="M0 0 C3.99843155 2.10087082 6.52638085 4.04013349 8.09375 8.28125 C8.76619329 13.29935805 8.64955467 17.10550936 6.46875 21.71875 C2.82710668 25.64789148 -0.57627467 27.40342703 -5.90625 27.71875 C-11.01365547 27.51367253 -14.12317942 25.00283539 -17.71875 21.53125 C-20.29113157 16.65726386 -20.3167767 12.64967233 -18.78125 7.53125 C-14.77804679 0.59236443 -7.94388749 -2.99523626 0 0 Z " fill="#ff610b" transform="translate(333.90625,441.71875)"/>
<path d="M0 0 C3.26033777 2.68498405 4.86019812 4.81888388 5.4453125 9.0859375 C5.70280268 14.80221952 5.09324538 18.35275511 1.125 22.75 C-2.5649827 25.91284231 -5.95353854 26.26992627 -10.66015625 26.10546875 C-14.97532463 25.41291086 -17.64130195 22.94115674 -20.6875 20 C-23.25988157 15.12601386 -23.2855267 11.11842233 -21.75 6 C-16.70534509 -2.74406852 -8.78933265 -3.82144898 0 0 Z " fill="#ff610b" transform="translate(336.875,362.25)"/>
<path d="M0 0 C2.75103707 2.4941065 3.86152471 4.39529467 4.30078125 8.17578125 C4.48165946 13.68780683 3.85009517 16.82556765 0.0625 21.125 C-3.66977781 24.32409526 -7.04539149 24.59124129 -11.79296875 24.41015625 C-16.01297302 23.84902636 -18.22073867 21.8218513 -21.1875 18.9375 C-23.38976339 15.39814812 -24.13311947 12.24083369 -23.9375 8.125 C-22.37990269 2.93300898 -20.52722091 0.03555473 -15.9375 -2.875 C-10.34723076 -5.38098276 -4.47964038 -3.71459892 0 0 Z " fill="#ff610b" transform="translate(337.9375,282.875)"/>
</svg>
